<svg width="1200" height="630" viewBox="0 0 1200 630" fill="none" xmlns="http://www.w3.org/2000/svg">
  <defs>
    <linearGradient id="bg" x1="88" y1="52" x2="1074" y2="592" gradientUnits="userSpaceOnUse">
      <stop stop-color="#FFF8F3"/>
      <stop offset="1" stop-color="#F8EFE8"/>
    </linearGradient>
    <linearGradient id="accent" x1="790" y1="184" x2="992" y2="404" gradientUnits="userSpaceOnUse">
      <stop stop-color="#F4B29A"/>
      <stop offset="1" stop-color="#F07D5A"/>
    </linearGradient>
  </defs>
  <rect width="1200" height="630" rx="40" fill="url(#bg)"/>
  <circle cx="1012" cy="160" r="150" fill="#FFFDFC" fill-opacity="0.9"/>
  <circle cx="1068" cy="504" r="164" fill="#FFF5EE" fill-opacity="0.86"/>
  <circle cx="130" cy="98" r="54" fill="#FDF0E7"/>
  <rect x="82" y="76" width="1036" height="478" rx="34" fill="#FFFDFC" stroke="#F0E4DB" stroke-width="2"/>
  <g transform="translate(114 110)">
    <rect x="0" y="0" width="74" height="74" rx="22" fill="#FDE8DD"/>
    <path d="M20 28.5C20 19.9396 26.9396 13 35.5 13C44.0604 13 51 19.9396 51 28.5V51C51 53.7614 48.7614 56 46 56H25C22.2386 56 20 53.7614 20 51V28.5Z" fill="#FFFDFB"/>
    <path d="M26 26C26 19.3726 31.3726 14 38 14C44.6274 14 50 19.3726 50 26V48C50 50.2091 48.2091 52 46 52H30C27.7909 52 26 50.2091 26 48V26Z" stroke="#F07D5A" stroke-width="4" stroke-linecap="round"/>
    <path d="M31 31.5H45" stroke="#F07D5A" stroke-width="4" stroke-linecap="round"/>
    <path d="M38 31.5V47" stroke="#F07D5A" stroke-width="4" stroke-linecap="round"/>
  </g>
  <text x="206" y="157" fill="#2D2520" font-size="44" font-family="'M PLUS Rounded 1c', 'Hiragino Sans', sans-serif" font-weight="800" letter-spacing="-0.02em">シッポミ</text>
  <text x="206" y="194" fill="#8A7E74" font-size="20" font-family="'M PLUS Rounded 1c', 'Hiragino Sans', sans-serif" font-weight="700" letter-spacing="0.08em">SIPPOMI</text>
  <text x="114" y="286" fill="#2D2520" font-size="72" font-family="'Noto Serif JP', 'Hiragino Mincho ProN', serif" font-weight="700">名前が決まる、</text>
  <text x="114" y="370" fill="#F07D5A" font-size="72" font-family="'Noto Serif JP', 'Hiragino Mincho ProN', serif" font-weight="700">その瞬間から。</text>
  <text x="116" y="442" fill="#5E554D" font-size="28" font-family="'M PLUS Rounded 1c', 'Hiragino Sans', sans-serif" font-weight="500">ペットの名前探しとお迎え準備を、</text>
  <text x="116" y="482" fill="#5E554D" font-size="28" font-family="'M PLUS Rounded 1c', 'Hiragino Sans', sans-serif" font-weight="500">スマホでやさしく進められるブランド</text>
  <g transform="translate(760 166)">
    <rect width="244" height="286" rx="34" fill="#F9F1EC"/>
    <rect x="28" y="34" width="188" height="134" rx="28" fill="url(#accent)" fill-opacity="0.18"/>
    <circle cx="122" cy="100" r="48" fill="url(#accent)" fill-opacity="0.22"/>
    <circle cx="86" cy="87" r="8" fill="#F07D5A" fill-opacity="0.36"/>
    <circle cx="122" cy="68" r="8" fill="#F07D5A" fill-opacity="0.36"/>
    <circle cx="158" cy="87" r="8" fill="#F07D5A" fill-opacity="0.36"/>
    <ellipse cx="122" cy="120" rx="38" ry="30" fill="#F07D5A" fill-opacity="0.24"/>
    <rect x="28" y="194" width="188" height="56" rx="22" fill="#FFFDFB"/>
    <rect x="44" y="212" width="82" height="12" rx="6" fill="#ECDDD3"/>
    <rect x="44" y="232" width="122" height="12" rx="6" fill="#F2E7DF"/>
    <rect x="44" y="252" width="96" height="12" rx="6" fill="#F2E7DF"/>
  </g>
  <rect x="114" y="520" width="164" height="48" rx="24" fill="#FDE8DD"/>
  <text x="150" y="551" fill="#D56645" font-size="22" font-family="'M PLUS Rounded 1c', 'Hiragino Sans', sans-serif" font-weight="800">無料で試せる</text>
</svg>
